<svg height="192" width="192" xmlns="http://www.w3.org/2000/svg"><filter id="a" color-interpolation-filters="sRGB"><feFlood flood-opacity=".2" result="flood"/><feComposite in="flood" in2="SourceGraphic" operator="in" result="composite1"/><feGaussianBlur in="composite1" result="blur" stdDeviation="4"/><feOffset dx="0" dy="4" result="offset"/><feComposite in="SourceGraphic" in2="offset" operator="over" result="composite2"/></filter><radialGradient id="b" cx="-228.54012" cy="-48.446045" gradientTransform="matrix(-.00027237342 2.1818181 -2.1818182 .00000003682 -105.76271 498.63297)" gradientUnits="userSpaceOnUse" r="88.000001"><stop offset="0" stop-color="#fff" stop-opacity=".2"/><stop offset=".5" stop-color="#a098cb" stop-opacity=".09803922"/><stop offset="1" stop-color="#fff" stop-opacity="0"/></radialGradient><g transform="translate(0 -860.36216)"><path d="m184 956.36218a88 88 0 0 1 -88 88.00002 88 88 0 0 1 -88-88.00002 88 88 0 0 1  88-88 88 88 0 0 1  88 88z" fill="#439"/><text line-height="100%" style="font-size:157.8085022;font-family:Courgette;letter-spacing:0;word-spacing:0;fill:#fff;filter:url(#a)" x="48.763416" xml:space="preserve" y="1009.3903"><tspan x="48.763416" y="1009.3903">P</tspan></text></g><path d="m184 95.99999a88 88 0 0 1 -87.999999 88.00002 88 88 0 0 1 -88.000002-88.00002 88 88 0 0 1  88.000002-88 88 88 0 0 1  87.999999 88z" fill="url(#b)"/></svg>
